<svg width="138" height="56" viewBox="0 0 138 56" fill="none" xmlns="http://www.w3.org/2000/svg">
<g clip-path="url(#clip0_0_2667)">
<path d="M26.0876 0.0258369C11.6809 0.0258369 0.00146484 10.7931 0.00146484 24.0768C0.00146484 28.4817 1.2895 32.6071 3.53095 36.1549C3.06341 42.2513 6.54706 49.0903 13.0056 53.4998C14.4861 54.5128 16.0354 55.3333 17.6031 55.9613C17.7543 56.0255 17.901 55.8467 17.8093 55.7092C17.7864 55.6771 17.7635 55.645 17.7406 55.6129C15.3937 52.0376 18.3502 47.3897 22.5948 47.9168C23.7361 48.0589 24.9004 48.1323 26.0876 48.1323C26.8622 48.1323 27.6277 48.1002 28.3886 48.036C39.738 47.1238 49.0063 39.5056 51.4999 29.4993C51.697 28.7293 51.8482 27.9454 51.9582 27.1479C52.0957 26.144 52.1691 25.1173 52.1691 24.0768C52.1691 10.7931 40.4897 0.0258369 26.0876 0.0258369Z" fill="#21B853"/>
<path d="M20.5605 48.0683C20.5192 48.0637 20.4734 48.0637 20.4321 48.0591C20.8538 47.94 21.3076 47.8758 21.7752 47.8758C21.7981 47.8758 21.821 47.8758 21.8439 47.8758C21.3947 47.885 20.9638 47.9537 20.5605 48.0683Z" fill="#DDBF66"/>
<path d="M30.4283 34.1793C30.4283 35.229 30.002 36.1824 29.3144 36.8699L29.3099 36.8745C28.2785 37.1404 27.2013 37.2779 26.0875 37.2779C24.3365 37.2779 22.9155 35.8615 22.9155 34.1105C22.9155 32.3595 24.3365 30.9431 26.0875 30.9431C26.7705 30.9431 27.4305 30.8377 28.0539 30.6452C29.4474 31.2136 30.4283 32.5795 30.4283 34.1793Z" fill="#EF62A3"/>
<path d="M23.3839 16.8572C23.3839 18.9199 21.7154 20.593 19.6527 20.593C17.5901 20.593 15.917 18.9199 15.917 16.8572C15.917 14.7946 17.5901 13.1215 19.6527 13.1215C21.7154 13.1215 23.3839 14.7946 23.3839 16.8572Z" fill="#201E1E"/>
<path d="M36.2179 16.8572C36.2179 18.9199 34.5448 20.593 32.4867 20.593C30.424 20.593 28.751 18.9199 28.751 16.8572C28.751 14.7946 30.424 13.1215 32.4867 13.1215C34.5448 13.1215 36.2179 14.7946 36.2179 16.8572Z" fill="#FEFEFE"/>
<path d="M26.0875 37.278C24.3365 37.278 22.9155 35.8617 22.9155 34.1107C22.9155 32.3597 24.3365 30.9433 26.0875 30.9433C29.7636 30.9433 32.7614 27.9501 32.7614 24.2694C32.7614 22.5184 34.1778 21.0974 35.9288 21.0974C37.6798 21.0974 39.0962 22.5184 39.0962 24.2694C39.0962 31.4429 33.261 37.278 26.0875 37.278Z" fill="#FEFEFE"/>
<path d="M22.9526 33.6476C23.1727 32.1166 24.4928 30.9431 26.0879 30.9431C24.4928 30.9431 23.1772 32.1166 22.9526 33.6476Z" fill="#E363A4"/>
<path d="M26.0885 37.278C18.9103 37.278 13.0752 31.4429 13.0752 24.2694C13.0752 22.5184 14.4916 21.0974 16.2426 21.0974C17.9936 21.0974 19.4145 22.5184 19.4145 24.2694C19.4145 27.9501 22.4077 30.9433 26.0885 30.9433C27.8349 30.9433 29.2558 32.3597 29.2558 34.1107C29.2558 35.8617 27.8349 37.278 26.0885 37.278Z" fill="#201E1E"/>
<path d="M86.2035 35.9763V19.1448H90.9431V35.9763H86.2035ZM86.1714 16.3671V12.6771H90.9752V16.3671H86.1714ZM94.0463 35.9763V32.511L107.316 22.9035H94.6055V19.1448H114.242V22.6101L100.977 32.2177H114.242V35.9763H94.0463ZM121.136 43.3287V39.57H131.005C132.311 39.57 132.967 38.9145 132.967 37.5761V35.9763H122.869C120.944 35.9763 119.569 35.4859 118.688 34.537C117.804 33.5882 117.345 32.346 117.345 30.8105V19.1448H122.085V30.2558C122.085 31.5622 122.741 32.2177 124.047 32.2177H132.802V19.1448H137.706V38.1628C137.706 39.6983 137.248 40.9726 136.363 41.9215C135.483 42.8703 134.076 43.3287 132.183 43.3287H121.136Z" fill="white"/>
<path d="M83.8239 19.1447V35.9763H62.0282C60.103 35.9763 58.6958 35.5179 57.8157 34.5691C56.931 33.6202 56.4727 32.3459 56.4727 30.8104V19.1447H61.2122V30.2237C61.2122 31.5621 61.8998 32.2176 63.2383 32.2176H67.7808V19.1447H72.5204V32.2176H79.0889V19.1447H83.8239Z" fill="white"/>
</g>
<defs>
<clipPath id="clip0_0_2667">
<rect width="137.705" height="56" fill="white"/>
</clipPath>
</defs>
</svg>
